<?xml version="1.0" encoding="UTF-8"?>
<svg id="Calque_1" data-name="Calque 1" xmlns="http://www.w3.org/2000/svg" viewBox="0 0 206 199">
  <defs>
    <style>
      .cls-1 {
        stroke-width: 0px;
      }
    </style>
  </defs>
  <path class="cls-1" d="m146.33,56.29v.03c-1.65-2.64-14.01-14.01-15.76-15.21.04-.01.08-.02.12-.02.6.13,16.04,14.48,15.64,15.2Z"/>
  <path class="cls-1" d="m146.33,56.29v.03c-1.65-2.64-14.01-14.01-15.76-15.21.04-.01.08-.02.12-.02.6.13,16.04,14.48,15.64,15.2Z"/>
  <path class="cls-1" d="m146.33,56.29v.03c-1.65-2.64-14.01-14.01-15.76-15.21.04-.01.08-.02.12-.02.6.13,16.04,14.48,15.64,15.2Z"/>
  <path class="cls-1" d="m161.79,41.63l-15.1-14.59c-.81-.78-1.89-1.22-3.02-1.22H63.94c-2.93,0-5.3,2.37-5.3,5.3v6.69h-4.82c-3.13,0-5.66,2.53-5.66,5.67v126.78c0,2.81,2.27,5.08,5.08,5.08h91.18c2.83,0,5.13-2.28,5.15-5.11l.02-3.89,8.03-.09c3.05-.04,5.5-2.52,5.5-5.56V44.75c0-1.17-.48-2.3-1.33-3.12Zm-18.31-12.01c0-.07.02-.14.05-.2.01-.03.03-.06.05-.09h0s0-.02,0-.02c.09-.1.22-.17.37-.17l15.64,14.98c0,.26-.22.47-.48.47h-15.16c-.06,0-.12-.01-.17-.04-.01.01-.03,0-.04-.01h-.01c-.05-.02-.08-.05-.12-.09-.04-.04-.08-.09-.1-.15-.03-.05-.04-.12-.04-.18v-14.5Zm3.02,140.16c0,1.46-1.18,2.64-2.63,2.64H54.34c-1.46,0-2.64-1.18-2.64-2.64V43.63c0-1.45,1.18-2.63,2.64-2.63h72.91c-.03.19-.05.38-.05.57v14.72c0,1.92,1.56,3.48,3.48,3.48h15.15c.23,0,.45-.02.67-.07v110.08Zm-16.29-113.49v-14.72s.01-.1.03-.15c0-.01,0-.02.01-.03.01-.04.03-.08.06-.11.03-.04.07-.08.11-.11h.01s.09-.05.14-.06c.04-.01.08-.02.12-.02.6.13,16.04,14.48,15.64,15.2v.04h0s0,.01-.01.02c0,.05-.01.09-.03.13,0,.01,0,.02-.01.02-.03.06-.06.1-.11.14-.03.04-.07.06-.12.08-.02.01-.04.02-.07.03-.04.01-.09.02-.14.02h-15.15c-.27,0-.48-.21-.48-.48Zm29.6,104.87c0,1.37-1.09,2.48-2.43,2.48h-7.87V56.75c0-.44,0-.84-.33-1.49,0,0-.01-.01-.01-.02-.67-1.29-2.64-3.57-8.46-9.09-6.16-5.84-8.17-7.5-9.26-7.96h-.01c-.43-.19-.72-.19-1.06-.19H62.09v-6.48c0-1.37,1.09-2.48,2.43-2.48h76.01c-.03.19-.05.38-.05.58v14.5c0,1.91,1.56,3.47,3.48,3.47h15.16c.24,0,.47-.02.69-.07v113.64Z"/>
  <path class="cls-1" d="m146.33,56.29v.03c-1.65-2.64-14.01-14.01-15.76-15.21.04-.01.08-.02.12-.02.6.13,16.04,14.48,15.64,15.2Z"/>
  <path class="cls-1" d="m131.87,83.2c0,1.11-.89,2-2,2H62.69c-.21,0-.42-.03-.61-.1-.81-.25-1.39-1.01-1.39-1.9s.58-1.64,1.39-1.9c.19-.07.4-.1.61-.1h67.18c1.11,0,2,.9,2,2Z"/>
  <path class="cls-1" d="m132.29,139.17c-.51.14-1.13.37-1.81.62-2.81,1.02-6.01,2.18-7.95.91-.29-.19-.63-.48-.89-.91-2.74,1.91-6.5,3.26-9.99,2.02-.49-.18-.87-.57-1.04-1.07-.09-.28-.23-.7.13-1.72-1.71.96-3.71,2.21-5.52,3.68-.28.23-.61.34-.95.34-.43,0-.86-.19-1.16-.55-.52-.65-.43-1.59.21-2.11,4.64-3.79,10.23-6.11,10.47-6.2.61-.26,1.31-.08,1.73.43s.45,1.23.09,1.78c-.66,1-1.3,2.09-1.7,2.87,2.52.24,5.25-1.2,6.99-2.68.56-.49,1.34-.62,2.03-.33.72.31,1.2.99,1.25,1.8.01.14.03.19.03.19.68.38,4-.82,5.25-1.28.73-.26,1.41-.51,1.99-.68.79-.22,1.63.23,1.86,1.02.23.8-.23,1.63-1.02,1.87Z"/>
  <path class="cls-1" d="m134.88,147.99c0,.83-.68,1.5-1.5,1.5h-42.22c-.44.82-.88,1.66-1.32,2.52-.27.52-.79.82-1.34.82-.23,0-.46-.06-.68-.17-.74-.37-1.03-1.28-.65-2.02.2-.39.4-.77.6-1.15h-6.28c-.83,0-1.5-.67-1.5-1.5s.67-1.5,1.5-1.5h7.89c1.26-2.24,2.55-4.32,3.94-6.27-2.36.62-4.86,1.13-7.49,1.53-.81.12-1.58-.45-1.7-1.27-.13-.81.44-1.58,1.26-1.7,4.07-.61,7.83-1.53,11.22-2.73,4.09-4.65,9.18-8.58,16.45-12.27.69-.35,1.53-.19,2.04.39.54.61.61,1.51.16,2.18-3.6,5.36-9.36,9.52-16.97,12.31-2,2.37-3.76,4.95-5.45,7.83h40.54c.82,0,1.5.67,1.5,1.5Z"/>
  <path class="cls-1" d="m131.87,93.85c0,1.1-.89,2-2,2H62.69c-.21,0-.42-.03-.61-.1-.81-.26-1.39-1.01-1.39-1.9s.58-1.65,1.39-1.9c.19-.07.4-.1.61-.1h67.18c1.11,0,2,.89,2,2Z"/>
  <path class="cls-1" d="m101.04,66.55c0,1.11-.89,2-2,2h-36.35c-.21,0-.42-.03-.61-.1-.81-.25-1.39-1.01-1.39-1.9s.58-1.64,1.39-1.9c.19-.07.4-.1.61-.1h36.35c1.11,0,2,.9,2,2Z"/>
</svg>