<?xml version="1.0" encoding="UTF-8"?>
<svg id="Calque_1" data-name="Calque 1" xmlns="http://www.w3.org/2000/svg" viewBox="0 0 206 199">
  <defs>
    <style>
      .cls-1 {
        fill: #1d1d1b;
        stroke-width: 0px;
      }
    </style>
  </defs>
  <path class="cls-1" d="m129.02,85.27l-.98.98c2.17-2.17,2.11-5.74-.13-7.97l-.11-.11c-2.24-2.24-5.81-2.3-7.97-.13l-16.91,16.91-9.09-9.09c-5.38,5.38-8.39,10.11-7.81,17.21l.23,2.69c.12,1.47-.4,2.9-1.42,3.92l-6.14,6.14,28.75,28.75,4.45-4.45c.89-.88,2.04-1.44,3.29-1.6l8.45-1.06c1.58-.2,3.04-.89,4.17-1.99l22.88-22.57c2.17-2.17,2.11-5.74-.13-7.97l-.11-.12c-2.24-2.23-5.81-2.29-7.97-.13l1.69-1.69c2.17-2.17,2.11-5.74-.13-7.97l-.11-.11c-2.24-2.24-5.81-2.3-7.97-.13l1.29-1.29c2.17-2.17,2.11-5.74-.13-7.97l-.11-.11c-2.24-2.24-5.81-2.3-7.97-.13"/>
  <path class="cls-1" d="m95.32,157.18l3.62-3.62,3.74,3.74-3.62,3.62-3.74-3.73Zm-38.49-27.64l42.05,42.05,14.17-14.17-42.05-42.05-14.17,14.17Z"/>
  <g>
    <path class="cls-1" d="m159.57,133.14l-3.62,3.62-3.74-3.74,3.62-3.62,3.74,3.74Zm-7.95-7.95l-3.62,3.62-5-5-3.81,3.8,14.69,14.7c1.62,1.62,4.21,1.66,5.78.09l5.48-5.48c1.57-1.57,1.53-4.16-.09-5.78l-14.69-14.69-3.74,3.74,5,5Z"/>
    <path class="cls-1" d="m89.42,82.68c1.94-.95,4.3-.54,5.87,1.03l7.8,7.79,3.81-3.8-10.28-10.28,3.62-3.62,10.28,10.28,3.74-3.75-7.77-7.77c-1.58-1.58-1.98-3.95-1.01-5.9,2.38-4.79,1.5-10.84-2.6-14.94l-8.41-8.41c-4.99-4.99-12.86-5.19-17.83-.61l12.79,12.79c1.61,1.6,1.64,4.16.09,5.72l-5.99,6c-1.55,1.55-4.12,1.51-5.72-.09l-12.73-12.74c-4.08,5-3.74,12.46,1.07,17.26l8.41,8.41c4.08,4.08,10.1,4.96,14.88,2.62"/>
  </g>
</svg>