<?xml version="1.0" encoding="UTF-8"?>
<svg id="Calque_1" data-name="Calque 1" xmlns="http://www.w3.org/2000/svg" viewBox="0 0 206 199">
  <defs>
    <style>
      .cls-1 {
        fill: none;
        stroke: #000;
        stroke-linejoin: round;
        stroke-width: 4px;
      }

      .cls-2 {
        stroke-width: 0px;
      }
    </style>
  </defs>
  <path class="cls-1" d="m172.33,110.45c0,8.46-3.91,16.01-10.01,20.94-4.07,3.29-9.11,5.42-14.62,5.89H61.1c-4.83-.4-9.3-2.1-13.06-4.71-6.99-4.86-11.57-12.96-11.57-22.12,0-14.27,11.08-25.94,25.1-26.88-.03-.52-.03-1.06-.05-1.59-.5-16.48,12.06-26.94,26.93-26.94,10.41,0,20.94,4.39,24.06,17.84,14.17-8.26,34.3-4.79,34.72,10.7,14.01.95,25.09,12.61,25.09,26.88Z"/>
  <path class="cls-1" d="m147.53,137.28c-.76.07-1.53.1-2.3.1s-1.54-.03-2.3-.1h4.6Z"/>
  <g>
    <path class="cls-2" d="m94.55,95.17v5.02c-1.45-.47-3.56-1.09-6.62-1.09-5.49,0-8.44,2.62-8.44,7.27,0,5.05,3.71,7.38,8.33,7.34,2.73-.04,5.13-.69,6.76-1.16v5.31c-2.58.54-5.24.8-7.2.8-7.6,0-13.78-3.56-13.78-12.25s6.76-12.25,13.85-12.25c1.93,0,4.84.33,7.09,1.02Z"/>
    <path class="cls-2" d="m122.26,106.19c0,9.02-6.22,12.47-12.76,12.47s-12.73-3.45-12.73-12.47c0-8.29,6.65-12.04,12.76-12.04s12.73,3.78,12.73,12.04Zm-19.6.04c0,5.45,3.56,7.49,6.87,7.49s6.84-2.04,6.84-7.49c0-4.55-3.09-7.05-6.87-7.05s-6.84,2.51-6.84,7.05Z"/>
    <path class="cls-2" d="m135.74,96.78c0,2.63-2.5,4.62-6.09,6.58h5.85v2.76h-10.71v-2.84c4.71-2.63,7.61-4.69,7.61-6.38,0-1.59-1.25-2.01-2.86-2.01-1.12,0-2.59.19-4.2.64v-2.69c1.55-.47,3.48-.7,5.26-.7,2.59,0,5.13,1.34,5.13,4.67Z"/>
  </g>
</svg>