<?xml version="1.0" encoding="UTF-8"?>
<svg id="Calque_1" data-name="Calque 1" xmlns="http://www.w3.org/2000/svg" viewBox="0 0 206 199">
  <defs>
    <style>
      .cls-1, .cls-2 {
        stroke-width: 0px;
      }

      .cls-2 {
        fill: #fff;
      }
    </style>
  </defs>
  <path class="cls-1" d="m140.56,59.1h-.48c.04-.07.09-.13.13-.2.12.07.24.13.35.2Z"/>
  <path class="cls-1" d="m140.56,59.1h-.48c.04-.07.09-.13.13-.2.12.07.24.13.35.2Z"/>
  <path class="cls-1" d="m140.56,59.1h-.48c.04-.07.09-.13.13-.2.12.07.24.13.35.2Z"/>
  <g id="TIbfKU.tif">
    <path class="cls-1" d="m140.21,58.9c-.04.07-.09.13-.13.2h.48c-.11-.07-.23-.13-.35-.2Zm0,0c-.04.07-.09.13-.13.2h.48c-.11-.07-.23-.13-.35-.2Zm0,0c-.04.07-.09.13-.13.2h.48c-.11-.07-.23-.13-.35-.2Zm0,0c-.04.07-.09.13-.13.2h.48c-.11-.07-.23-.13-.35-.2Zm0,0c-.04.07-.09.13-.13.2h.48c-.11-.07-.23-.13-.35-.2Zm0,0c-.04.07-.09.13-.13.2h.48c-.11-.07-.23-.13-.35-.2Zm0,0c-.04.07-.09.13-.13.2h.48c-.11-.07-.23-.13-.35-.2Zm0,0c-.04.07-.09.13-.13.2h.48c-.11-.07-.23-.13-.35-.2Zm0,0c-.04.07-.09.13-.13.2h.48c-.11-.07-.23-.13-.35-.2Zm0,0c-.04.07-.09.13-.13.2h.48c-.11-.07-.23-.13-.35-.2Zm0,0c-.04.07-.09.13-.13.2h.48c-.11-.07-.23-.13-.35-.2Zm0,0c-.04.07-.09.13-.13.2h.48c-.11-.07-.23-.13-.35-.2Zm0,0c-.04.07-.09.13-.13.2h.48c-.11-.07-.23-.13-.35-.2Zm0,0c-.04.07-.09.13-.13.2h.48c-.11-.07-.23-.13-.35-.2Zm0,0c-.04.07-.09.13-.13.2h.48c-.11-.07-.23-.13-.35-.2Z"/>
  </g>
  <path class="cls-2" d="m58.81,152.78c3.36-1.96,6.67-3.91,10.08-5.92,1.18,2.37,3.06,4.31,3.69,6.89.66,2.71-.81,5.42-3.35,6.53-2.54,1.1-5.55.32-7.08-2-1.17-1.76-2.2-3.62-3.34-5.5Z"/>
  <g>
    <path class="cls-1" d="m172.9,165.14c-47.07,21.58-93.94,21.78-140.59,0l5.08-23.44c.85-3.58,3.22-6.61,6.49-8.27,10.39-5.28,20.69-8.3,30.93-10.8,4.18,16.11,13.58,29.54,27.71,42.97,13.36-12.92,23.12-27.09,28.08-42.94,10.13,2.53,20.17,5.14,30.15,10.42,3.06,1.62,5.31,4.44,6.21,7.78l5.95,24.28Z"/>
    <g>
      <path class="cls-1" d="m95.13,124.54c4.95-.92,9.93-.92,14.96.03,1.2.23,1.93,1.47,1.56,2.64-1.18,3.72-4.06,10.91-8.68,10.91s-7.91-7.09-9.35-10.83c-.46-1.19.27-2.51,1.52-2.74Z"/>
      <path class="cls-1" d="m98.98,134.33c-.58.12-5.16,32.15-4.49,32.38,0,0,16.32.2,16.83,0,.67-.26-4.36-30.84-5.19-32.22-.14-.24-7.14-.16-7.14-.16Z"/>
    </g>
    <g id="zQJCFA.tif">
      <path class="cls-1" d="m71.44,90.87c-2.37.64-4.02.08-5.51-1.95-1.82-2.49-2.61-5.41-3.28-8.35-.6-2.59-1.18-5.18-.58-7.87.54-2.45,1.79-4.32,4.13-5.3.88-.37.92-.95.95-1.7.19-4.63.07-14.65,4.54-23.95,3.25-6.76,8.22-9.61,14.28-11.37,3.47-4.78,9.85-7.22,22.98-6,9.36.87,16.04,1.78,18.76,8.54,6.29,3.75,9.05,7.65,10.76,14.56,1,4.04.48,11.61-.11,15.96.12.85.42,1.33,1.19,1.74,2.62,1.39,3.85,2.68,3.9,5.67.15,4.84-.18,8.91-2.25,14.06-1.57,3.92-5.09,2.18-5.44,3.31-1.18,3.9-3.06,7.97-3.55,8.98-3.26,6.73-8.38,11.7-14.61,16.02-10.22,7.07-22.51,6.36-32.04-1.74-6.23-5.29-10.4-11.98-13.52-19.42-.12-.29-.24-.58-.38-.86-.06-.11-.16-.21-.24-.3Zm19.98-36.29c-.26.37-14.42,5.8-17.29,9.26-.54.65-.09,4.59-.08,5.45.06,6.12,1.53,12.63,3.66,18.38,2.63,7.11,6.38,13.6,12.44,18.38,5.14,4.06,12.11,6.46,18.54,4.23,5.53-1.92,10.72-6.41,13.99-11.14.03-.04,3.51-6.23,4.39-8.46,1.11-3.08,2.49-6.36,3.33-9.51,1.4-5.25,1.6-11.07,1.22-16.51-.07-.94-1.61-2.32-2.6-2.44-4.4-.52-17.61,1.53-29.35-2.96-2.21-.85-6.12-3.02-8.25-4.68Z"/>
    </g>
    <path class="cls-1" d="m109.27,99.98l-.73-4.37c4.31-.72,18.29-4.56,25.19-10.58l2.91,3.34c-8.3,7.24-23.7,11-27.38,11.62Z"/>
    <rect class="cls-1" x="95.84" y="92.68" width="18.16" height="8.68" rx="3.82" ry="3.82"/>
    <path class="cls-1" d="m61.57,79.34c-.1-.3-2.37-7.5-3.02-17.03-.87-12.83,1.7-23.75,7.42-31.6,7.5-10.28,20.21-15.49,37.77-15.49s30.02,5.16,37.16,15.34c5.48,7.82,7.66,18.71,6.29,31.51-1.01,9.5-3.58,16.67-3.69,16.97l-4.94-1.79c.1-.27,9.6-27.21-1.97-43.7-6.1-8.68-17.15-13.09-32.85-13.09s-27.05,4.48-33.51,13.32c-12.16,16.64-3.74,43.68-3.66,43.95l-5,1.6Z"/>
    <rect class="cls-1" x="56.68" y="65.02" width="18.32" height="26.63" rx="7.88" ry="7.88" transform="translate(-15.64 16.44) rotate(-12.73)"/>
    <rect class="cls-1" x="131.16" y="64.19" width="19.34" height="28.05" rx="7.88" ry="7.88" transform="translate(20.7 -29.11) rotate(12.73)"/>
  </g>
</svg>