<?xml version="1.0" encoding="UTF-8"?>
<svg id="Calque_1" data-name="Calque 1" xmlns="http://www.w3.org/2000/svg" viewBox="0 0 206 199">
  <defs>
    <style>
      .cls-1, .cls-2 {
        stroke-width: 0px;
      }

      .cls-2 {
        fill: #111;
      }
    </style>
  </defs>
  <g id="v0qeyX.tif">
    <g>
      <path class="cls-1" d="m155.56,119.25c-17.45,0-51.99.02-53.04.02,0,9.36-.14,28.3-.14,28.43-.02,1.2.36,2.25,1.1,3.2,1.01,1.29,2.29,2.08,3.94,2.08,11.86.02,23.72.02,35.58.02.04,0,3.51-.03,6.88-.05,3.51-.03,6.35-2.87,6.36-6.38.03-8.44.08-22.85.08-27.32h-.76Zm-15.51,6h8.33v7.78h-8.33v-7.78Zm-20.91,20.63h-8.33v-7.78h8.33v7.78Zm0-12.85h-8.33v-7.78h8.33v7.78Zm14.62,12.85h-8.33v-7.78h8.33v7.78Zm0-12.85h-8.33v-7.78h8.33v7.78Zm15.65,6.1l-4.89,6.24c-.31.39-.86.47-1.26.17-1.17-.87-3.45-2.55-4.26-3.14-.59-.43-.74-1.12-.35-1.67.37-.53,1.1-.64,1.68-.24.89.62,1.78,1.24,2.64,1.9.4.3.67.25.96-.13,1.18-1.52,2.37-3.03,3.56-4.54.61-.62,1.27-.44,1.7-.14.43.31.57,1.1.22,1.54Z"/>
      <path class="cls-1" d="m140.13,102.7c0,1.52.03,3.03.01,4.55,0,.2-.11.45-.25.6-2.26,2.44-.9,6.04,1.8,6.7,1.8.44,3.33.1,4.62-1.87.9-1.38.73-3.44-.44-4.63-.16-.16-.29-.43-.3-.65-.02-1.56,0-3.13.01-4.69.04-.04.08-.08.12-.12,1.71,0,3.42,0,5.12,0,3.54,0,5.4,1.47,5.4,4.37,0,1.72.13,7.42.13,10.45-.29,0-52.69-.16-54.03-.16,0-3.04.04-7.77.04-9.52,0-1.08.37-2.02.96-2.9.92-1.36,2.28-2.08,3.82-2.21,1.97-.16,3.97-.04,6.02-.04,0,1.64.03,3.22-.03,4.8-.01.3-.37.59-.58.88-1.74,2.37-.54,5.71,2.34,6.36,2.31.53,4.48-.91,4.87-3.29.21-1.28-.15-2.34-.91-3.33-.13-.18-.29-.4-.29-.6-.01-1.56.01-3.13.03-4.69.05-.04.11-.08.16-.11,5.61,0,11.22-.02,16.83-.02,1.47,0,2.93.01,4.4.02.04.04.08.08.12.12Z"/>
      <path class="cls-2" d="m143.44,152.7c.04.06.09.13.13.19-.05.03-.09.05-.14.08,0-.09,0-.18,0-.27Z"/>
      <path class="cls-1" d="m114.52,104.48c0-1.94,0-3.89,0-5.83,0-.9.35-1.34,1.03-1.36,1.06-.03,1.61.39,1.66,1.32.04.64,0,1.28,0,1.92,0,3.27,0,6.54,0,9.82,0,.97-.48,1.57-1.26,1.62-.94.06-1.43-.42-1.43-1.44-.01-2.02,0-4.03,0-6.05Z"/>
      <path class="cls-1" d="m141.53,104.51c0-1.99,0-3.99,0-5.98,0-.63.22-1.13.87-1.24.98-.17,1.55.17,1.75.96.05.2.06.42.06.63,0,3.8,0,7.59,0,11.39,0,1.13-.59,1.76-1.57,1.68-.63-.05-1.08-.36-1.08-1.04-.02-2.14,0-4.27,0-6.41,0,0-.02,0-.02,0Z"/>
      <path class="cls-2" d="m118.78,102.59c-.05.04-.11.08-.16.11.05-.04.11-.08.16-.11Z"/>
      <path class="cls-2" d="m140.13,102.7s-.08-.08-.12-.12c.04.04.08.08.12.12Z"/>
      <path class="cls-2" d="m145.71,102.59s-.08.08-.12.12c.04-.04.08-.08.12-.12Z"/>
    </g>
  </g>
  <path class="cls-1" d="m119.49,100.52l7.87-.11v-48.36c0-5.04-4.09-9.13-9.13-9.13h-53.14c-5.04,0-9.13,4.09-9.13,9.13v105.5c0,5.04,4.09,9.13,9.13,9.13h53.15c5.04,0,9.12-4.09,9.12-9.13l-.07-2.57-19.78-.03c-3.97,0-7.18-3.24-7.15-7.21v-1.56s-36.46,0-36.46,0V55.31h55.51v43s.05,2.2.07,2.21Zm-27.83,51.21c2.75,0,4.97,2.22,4.97,4.97s-2.22,4.96-4.97,4.96-4.96-2.22-4.96-4.96,2.22-4.97,4.96-4.97Z"/>
  <path class="cls-1" d="m107.95,90.98l-13.06,16.69c-.82,1.04-2.32,1.25-3.37.45-3.14-2.32-9.24-6.82-11.39-8.39-1.58-1.16-1.98-2.99-.94-4.46,1-1.41,2.95-1.72,4.49-.65,2.38,1.66,4.75,3.33,7.05,5.07,1.07.81,1.79.66,2.58-.34,3.15-4.06,6.35-8.09,9.52-12.14,1.64-1.64,3.39-1.19,4.55-.37,1.14.82,1.52,2.93.59,4.12Z"/>
</svg>