<?xml version="1.0" encoding="UTF-8"?>
<svg id="Calque_1" data-name="Calque 1" xmlns="http://www.w3.org/2000/svg" viewBox="0 0 206 199">
  <defs>
    <style>
      .cls-1 {
        stroke-width: 0px;
      }
    </style>
  </defs>
  <g id="gAvLzx.tif">
    <g>
      <path class="cls-1" d="m127.04,71.93c0,6.07,0,17.31,0,17.31,0,0-20.88,0-20.97-.02v-21.05h.52c4.04,0,8.08,0,12.12,0,1.53,0,3.04,0,4.54,0,2.09,0,3.78,1.69,3.78,3.77Zm-10.51,8.29c1.47,0,2.95,0,4.42,0,.16,0,.33,0,.49-.05.8-.22,1.22-.92,1.1-1.81-.09-.63-.81-1.15-1.62-1.16-2.96,0-5.92-.01-8.88,0-.86,0-1.5.7-1.49,1.57,0,.63.68,1.48,1.52,1.46,1.49-.04,2.98-.01,4.46,0Z"/>
      <path class="cls-1" d="m104.57,111.83h-17.33c-2.08,0-3.77-1.69-3.77-3.78,0-6.03,0-17.17,0-17.29h21.08c0,.51,0,14.54,0,21.07Zm-12.71-10.56c-.88.88-1.77,1.73-2.61,2.63-.25.27-.46.65-.51,1.01-.1.65.33,1.29.91,1.54.56.24,1.17.09,1.67-.4.88-.88,1.75-1.76,2.65-2.65.91.91,1.78,1.82,2.7,2.67.27.25.66.43,1.02.49.55.09,1.22-.39,1.44-.88.25-.58.12-1.24-.34-1.7-.79-.79-1.57-1.6-2.38-2.37-.27-.26-.25-.41.01-.66.81-.78,1.59-1.58,2.38-2.37.61-.61.59-1.5.05-2.12-.43-.5-1.73-.52-2.19,0-.48.56-1.03,1.05-1.55,1.57-.37.38-.74.76-1.12,1.15-.95-.95-1.83-1.85-2.72-2.73-.42-.42-1.34-.53-1.8-.24-.85.54-.99,1.66-.27,2.39.88.9,1.78,1.78,2.68,2.67Z"/>
      <path class="cls-1" d="m106.04,111.83s.01-.09.01-.14c0-6.8,0-20.75,0-20.96.17,0,20.85.02,21,.03-.02.15,0,11.26,0,17.28,0,2.08-1.69,3.78-3.77,3.78-6.04,0-17.19,0-17.24,0Zm10.5-11.32c1.52,0,3.04,0,4.56,0,.63,0,1.1-.32,1.34-.88.2-.48.22-.99-.13-1.46-.34-.47-.79-.66-1.35-.66-2.92,0-5.83,0-8.75,0-.14,0-.28,0-.41.02-.64.07-1.24.75-1.25,1.39,0,.94.58,1.57,1.52,1.58,1.49.02,2.98,0,4.46,0Zm0,4.52s0,0,0,0c1.53,0,3.07.01,4.6,0,.6,0,1.07-.33,1.29-.88.19-.47.21-.97-.11-1.42-.33-.46-.77-.68-1.33-.68-2.35,0-4.69,0-7.04,0-.69,0-1.38-.01-2.07.02-.7.03-1.33.71-1.33,1.4,0,.94.57,1.56,1.53,1.57,1.49.02,2.98,0,4.46,0Z"/>
      <path class="cls-1" d="m104.53,89.24h-21.01v-17.28c0-2.08,1.69-3.77,3.77-3.77h17.24v21.05Zm-12.02-12.04c-1.04,0-2.02,0-3.01,0-.49,0-.91.18-1.22.57-.38.49-.44,1.07-.17,1.6.28.55.75.87,1.42.85.98-.02,1.96,0,2.98,0,0,1.08,0,2.12,0,3.16,0,.59.37.98.83,1.24.43.23.89.17,1.32-.06.63-.34.85-.9.86-1.57.01-.91,0-1.83,0-2.76,1.02,0,1.98.01,2.95,0,1.15-.02,1.84-1.14,1.35-2.2-.3-.63-.89-.81-1.54-.82-.91-.01-1.83,0-2.76,0,0-.55.01-1.04,0-1.53-.02-.61.03-1.23-.1-1.82-.2-.86-.76-1.2-1.84-1.08-.54.06-1.09.67-1.08,1.35.02,1.01,0,2.02,0,3.08Z"/>
    </g>
  </g>
  <g>
    <path class="cls-1" d="m101.35,149.29c-.3.64-.47,1.35-.47,2.11s.17,1.46.47,2.1c-.29-.64-.46-1.35-.46-2.1s.17-1.47.46-2.11Z"/>
    <path class="cls-1" d="m137.99,41.64c-.33-.49-.7-.94-1.12-1.35-1.65-1.65-3.92-2.67-6.44-2.67h-51.15c-2.52,0-4.8,1.02-6.45,2.67-.42.41-.79.86-1.12,1.35-.99,1.46-1.56,3.21-1.56,5.11v105.5c0,1.89.57,3.65,1.56,5.1.16.25.34.48.53.71.18.22.38.44.59.64,1.65,1.66,3.93,2.68,6.45,2.68h51.15c2.52,0,4.79-1.02,6.44-2.68.21-.2.41-.42.59-.64.19-.23.37-.46.53-.71.99-1.45,1.56-3.21,1.56-5.1V46.75c0-1.9-.57-3.65-1.56-5.11Zm-27.78,112.13c-.15.28-.33.54-.53.79-.91,1.1-2.28,1.8-3.83,1.8-.34,0-.68-.03-1-.1-.97-.2-1.84-.68-2.51-1.35-.11-.11-.22-.23-.32-.35-.09-.11-.17-.22-.25-.33-.16-.23-.3-.47-.42-.73-.3-.64-.47-1.35-.47-2.1s.17-1.47.47-2.11c.12-.26.26-.5.42-.73.08-.11.16-.22.25-.33.1-.12.21-.24.32-.35.67-.67,1.54-1.15,2.51-1.35.32-.07.66-.1,1-.1,1.55,0,2.92.7,3.83,1.8.2.25.38.51.53.8.39.7.6,1.51.6,2.37s-.21,1.66-.6,2.37Zm21.39-12.89h-53.5V50.01h53.5v90.87Z"/>
  </g>
</svg>