<?xml version="1.0" encoding="UTF-8"?>
<svg id="Calque_1" data-name="Calque 1" xmlns="http://www.w3.org/2000/svg" viewBox="0 0 206 199">
  <defs>
    <style>
      .cls-1 {
        stroke-width: 0px;
      }
    </style>
  </defs>
  <g>
    <path class="cls-1" d="m118.79,156.64l-14.62,8.87c-1.68.97-3.79-.25-3.79-2.19v-4.14c-32.33-1.6-58.14-28.4-58.14-61.12,0-2.54,2.06-4.58,4.58-4.58s4.58,2.04,4.58,4.58c0,27.66,21.7,50.35,48.97,51.93v-4.43c0-2.14,2.32-3.47,4.18-2.41l14.22,8.66c1.86,1.06,1.86,3.75,0,4.82Z"/>
    <path class="cls-1" d="m88.96,39.35l14.62-8.87c1.68-.97,3.79.25,3.79,2.19v4.14c32.33,1.6,58.14,28.4,58.14,61.12,0,2.54-2.06,4.58-4.58,4.58s-4.58-2.04-4.58-4.58c0-27.66-21.7-50.35-48.97-51.93v4.43c0,2.14-2.32,3.47-4.18,2.41l-14.22-8.66c-1.86-1.06-1.86-3.75,0-4.82Z"/>
  </g>
  <path class="cls-1" d="m122.65,105.61c-11.9,12.53-24.66,11.21-31.95,15.17-3.78,2.06-6.27,5.05-6.53,5.73,1.12-6.1,4.17-13.15,8.89-19.79.51-.71,5.61-.12,17.73-5.98-5.93,2.04-16.75,4.29-15.6,2.86,4.85-5.99,12.13-12.09,19.58-15.85-11.39,4.56-19.14,10.36-25.41,20.16-.5.78-1.74-3.78-.03-13.82-3.42,7.76-2.53,18.16-3.06,19.18-1.61,3.1-3.14,6.54-4.63,10.38,0,0-9.52-21.7.33-32.83,9.85-11.15,18.93-11.22,27.83-13.89,9.2-2.7,15.01-5.47,15.01-5.47,0,0,7.52,23.91-2.17,34.15Z"/>
</svg>