<svg viewBox="0 0 111 12" fill="none" xmlns="http://www.w3.org/2000/svg">
<mask id="mask0_2_20" style="mask-type:alpha" maskUnits="userSpaceOnUse" x="52" y="0" width="17" height="12">
<path d="M52.6684 0.0646515H68.6934V12H52.6684V0.0646515Z" fill="white"/>
</mask>
<g mask="url(#mask0_2_20)">
<path fill-rule="evenodd" clip-rule="evenodd" d="M64.6591 4.86718H57.0333C56.6886 4.86718 56.302 4.84086 56.1217 4.79476C55.4467 4.6217 55.1236 4.06907 55.1236 3.50107C55.1236 3.01139 55.4104 2.41939 56.1366 2.21265C56.3544 2.15055 56.5632 2.14718 57.0053 2.14718H67.8245V0.0646515H56.8265C56.3938 0.0646515 56.0457 0.0777041 55.7353 0.117915C53.9575 0.349915 52.6684 1.7377 52.6684 3.50591C52.6684 5.08591 53.7585 6.64697 55.6914 6.91391C56.1146 6.97223 56.7599 6.9617 56.9346 6.9617H64.3246C64.43 6.9617 64.8031 6.96823 64.8984 6.98086C65.7793 7.09749 66.2339 7.72928 66.2339 8.43897C66.2339 9.03392 65.8444 9.71749 64.9733 9.86465C64.8621 9.88339 64.4701 9.89349 64.3431 9.89349H53.0398V12H64.5218C64.6602 12 65.2949 11.9943 65.4257 11.9832C67.5727 11.8002 68.6934 10.1585 68.6934 8.42086C68.6934 6.88991 67.6732 5.09791 65.6037 4.90465C65.167 4.86381 64.8113 4.86718 64.6591 4.86718Z" fill="white"/>
</g>
<mask id="mask1_2_20" style="mask-type:alpha" maskUnits="userSpaceOnUse" x="30" y="0" width="17" height="12">
<path d="M30.6726 0.0646515H46.6976V12H30.6726V0.0646515Z" fill="white"/>
</mask>
<g mask="url(#mask1_2_20)">
<path fill-rule="evenodd" clip-rule="evenodd" d="M42.6633 4.86718H35.0378C34.6931 4.86718 34.3062 4.84086 34.1259 4.79476C33.4509 4.6217 33.1281 4.06907 33.1281 3.50107C33.1281 3.01139 33.4146 2.41939 34.1409 2.21265C34.3586 2.15055 34.5674 2.14718 35.0095 2.14718H45.8288V0.0646515H34.8308C34.398 0.0646515 34.0499 0.0777041 33.7395 0.117915C31.9617 0.349915 30.6726 1.7377 30.6726 3.50591C30.6726 5.08591 31.7627 6.64697 33.6956 6.91391C34.119 6.97223 34.7641 6.9617 34.9388 6.9617H42.3291C42.4343 6.9617 42.8075 6.96823 42.9029 6.98086C43.7838 7.09749 44.2381 7.72928 44.2381 8.43897C44.2381 9.03392 43.8486 9.71749 42.9775 9.86465C42.8663 9.88339 42.4744 9.89349 42.3473 9.89349H31.0441V12H42.5261C42.6644 12 43.2991 11.9943 43.4299 11.9832C45.577 11.8002 46.6976 10.1585 46.6976 8.42086C46.6976 6.88991 45.6777 5.09791 43.6079 4.90465C43.1714 4.86381 42.8155 4.86718 42.6633 4.86718Z" fill="white"/>
</g>
<path fill-rule="evenodd" clip-rule="evenodd" d="M22.0086 12H24.8793V0H22.0086V12Z" fill="white"/>
<path fill-rule="evenodd" clip-rule="evenodd" d="M12.9557 9.58853L3.29115 0H0V12H2.35489V2.34861L12.0854 12H15.3103V0H12.9557V9.58853Z" fill="white"/>
<path fill-rule="evenodd" clip-rule="evenodd" d="M108.645 9.58874L98.9806 0H95.6897V12H98.0445V2.34861L107.775 12H111V0H108.645V9.58874Z" fill="white"/>
<path fill-rule="evenodd" clip-rule="evenodd" d="M78.213 7.86813L81.8172 2.22965L85.4159 7.86813H78.213ZM80.4185 0L72.7241 12H75.619L77.0372 9.77839H86.5939L88.014 12H90.9052L83.2134 0H80.4185Z" fill="white"/>
</svg>
